<?xml version="1.0" standalone="no"?>
<!DOCTYPE svg PUBLIC "-//W3C//DTD SVG 20010904//EN"
 "http://www.w3.org/TR/2001/REC-SVG-20010904/DTD/svg10.dtd">
<svg version="1.0" xmlns="http://www.w3.org/2000/svg"
 width="104.000000pt" height="104.000000pt" viewBox="0 0 104.000000 104.000000"
 preserveAspectRatio="xMidYMid meet">

<g transform="translate(0.000000,104.000000) scale(0.100000,-0.100000)"
fill="#000000" stroke="none">
<path d="M395 956 c-124 -62 -233 -144 -307 -232 l-51 -59 7 -81 c12 -158 87
-378 158 -467 76 -94 570 -93 636 1 80 113 150 315 159 459 l6 92 -79 82 c-92
94 -169 154 -185 143 -8 -4 -9 -3 -5 4 8 14 -30 36 -46 26 -7 -4 -8 -3 -4 5 5
8 -15 22 -59 42 -104 47 -107 47 -230 -15z m148 -33 c-7 -3 -13 -12 -14 -21 0
-14 -2 -14 -6 -2 -3 8 -10 18 -16 21 -5 4 4 6 19 6 16 0 23 -2 17 -4z m-94
-47 c-2 -20 -2 -20 -6 2 -3 16 -12 22 -31 23 -24 0 -25 1 -7 8 25 11 45 -5 44
-33z m50 28 c9 -8 -15 -68 -29 -71 -12 -4 -12 -3 -2 5 15 10 7 61 -12 75 -6 5
0 5 14 1 14 -3 27 -8 29 -10z m96 5 c4 -6 14 -8 22 -5 18 7 103 -29 103 -43 0
-5 7 -11 16 -13 10 -2 2 -13 -27 -35 -24 -18 -37 -33 -29 -33 7 0 11 -3 7 -6
-3 -3 -14 -1 -24 5 -14 8 -15 11 -3 11 9 0 6 6 -10 16 -17 10 -18 13 -5 9 35
-12 47 -10 61 11 13 18 12 23 -5 38 -19 17 -20 17 -36 -11 -15 -27 -15 -19 0
20 4 9 3 17 -3 17 -6 0 -13 -6 -15 -12 -3 -8 -6 -6 -6 5 -1 27 -20 20 -28 -10
l-7 -28 -6 29 c-6 37 -23 43 -38 14 -11 -23 -11 -23 -11 -1 -1 28 31 44 44 22z
m-205 -30 c7 -11 9 -23 6 -27 -3 -3 -6 0 -6 6 0 6 -7 18 -16 26 -8 9 -11 16
-5 16 6 0 15 -9 21 -21z m-20 -20 c17 -30 6 -34 -14 -4 -9 14 -12 25 -7 25 6
0 15 -9 21 -21z m-25 -19 c17 -32 42 -40 51 -15 4 8 10 12 16 9 12 -7 -21 -33
-43 -34 -9 0 -22 14 -29 30 -12 29 -38 44 -27 16 4 -11 1 -13 -10 -9 -13 5
-15 2 -10 -12 6 -15 5 -16 -8 -5 -13 11 -12 14 8 31 30 25 34 24 52 -11z m100
-8 c-3 -3 -11 0 -18 7 -9 10 -8 11 6 5 10 -3 15 -9 12 -12z m147 7 c16 -9 23
-8 29 2 6 10 9 10 9 2 0 -19 -18 -25 -41 -13 -15 9 -24 9 -32 1 -8 -8 -6 -11
9 -11 21 -1 61 -27 52 -35 -3 -3 -11 1 -18 10 -7 8 -20 15 -29 15 -9 0 -22 5
-29 12 -9 9 -18 9 -37 0 -38 -18 -55 -14 -20 4 16 8 37 13 47 11 10 -3 21 -1
24 4 7 12 11 11 36 -2z m89 -12 c-10 -9 -11 -8 -5 6 3 10 9 15 12 12 3 -3 0
-11 -7 -18z m91 -15 c-7 -2 -12 -10 -12 -17 0 -8 -4 -16 -10 -20 -5 -3 -5 7 1
25 7 18 15 27 22 23 8 -5 8 -8 -1 -11z m-449 -42 c5 0 7 7 3 15 -4 13 -2 13
14 5 13 -7 28 -7 47 1 21 7 25 7 17 -1 -6 -6 -24 -13 -40 -14 -17 -2 -28 -9
-26 -16 2 -8 -11 -4 -33 8 -36 22 -49 11 -22 -18 6 -8 2 -6 -11 5 -14 11 -19
22 -13 28 5 5 7 17 3 25 -3 10 7 5 23 -11 17 -15 34 -27 38 -27z m217 35 c9
-10 10 -35 5 -86 -5 -52 -4 -70 4 -65 6 4 11 35 11 72 0 46 4 64 13 64 30 0
35 -21 21 -83 -8 -33 -13 -68 -11 -76 2 -9 9 11 16 44 19 90 21 95 41 95 30 0
31 -13 5 -75 -13 -33 -29 -88 -36 -122 -7 -35 -15 -63 -18 -63 -20 1 -32 23
-35 64 -1 27 -9 54 -19 63 -16 16 -18 16 -33 1 -9 -9 -18 -37 -20 -64 -2 -40
-15 -63 -34 -64 -3 0 -13 37 -24 83 -10 45 -27 100 -37 121 -15 31 -16 42 -7
48 30 19 43 2 57 -72 8 -41 17 -68 19 -59 1 9 -3 44 -11 77 -14 62 -9 82 20
82 8 0 13 -15 14 -42 1 -24 5 -56 10 -73 6 -21 7 -7 4 46 -4 90 13 122 45 84z
m-100 -10 c-7 -9 -15 -13 -19 -10 -3 3 1 10 9 15 21 14 24 12 10 -5z m-205
-15 c-10 -11 -16 -21 -14 -23 2 -1 16 -9 31 -16 14 -7 24 -19 22 -26 -4 -9
-13 -6 -29 11 -23 22 -45 31 -45 18 0 -3 10 -15 23 -25 l22 -20 -22 10 c-12 6
-25 16 -28 21 -7 12 32 70 47 70 6 0 3 -9 -7 -20z m485 0 c0 -5 -2 -10 -4 -10
-3 0 -8 5 -11 10 -3 6 -1 10 4 10 6 0 11 -4 11 -10z m95 -9 c-6 -5 -21 -11
-35 -15 -21 -5 -20 -3 5 9 35 17 42 18 30 6z m-435 -75 c0 -12 -5 -7 -19 24
-11 24 -11 24 3 6 9 -11 16 -24 16 -30z m298 19 c-6 -14 -13 -23 -15 -21 -5 5
15 46 22 46 3 0 -1 -11 -7 -25z m151 4 c-22 -14 -33 -10 -19 6 7 8 17 12 22 9
6 -4 5 -10 -3 -15z m-46 -9 c3 -11 3 -20 1 -20 -2 0 -8 9 -14 20 -6 11 -7 20
-2 20 6 0 12 -9 15 -20z m68 -13 c-10 -9 -11 -8 -5 6 3 10 9 15 12 12 3 -3 0
-11 -7 -18z m-616 -25 c-8 -8 -43 9 -49 24 -5 12 -1 12 24 -2 16 -10 28 -20
25 -22z m-72 3 c-3 -9 -8 -14 -10 -11 -3 3 -2 9 2 15 9 16 15 13 8 -4z m647 1
c0 -3 -4 -8 -10 -11 -5 -3 -10 -1 -10 4 0 6 5 11 10 11 6 0 10 -2 10 -4z
m-600 -26 c8 -5 11 -10 5 -10 -5 0 -17 5 -25 10 -8 5 -10 10 -5 10 6 0 17 -5
25 -10z m437 -22 c-3 -8 -6 -5 -6 6 -1 11 2 17 5 13 3 -3 4 -12 1 -19z m-107
-8 c8 -14 8 -26 0 -40 -21 -39 -48 -13 -36 35 8 30 22 32 36 5z m315 -6 c9
-15 12 -23 6 -20 -11 7 -35 46 -28 46 3 0 12 -12 22 -26z m-655 9 c0 -5 -10
-19 -21 -33 l-21 -25 18 33 c18 32 24 38 24 25z m437 -35 c-3 -8 -6 -5 -6 6
-1 11 2 17 5 13 3 -3 4 -12 1 -19z m-445 -43 c-8 -65 28 -81 99 -45 24 13 48
18 61 15 17 -6 19 -12 13 -43 -19 -110 -18 -126 11 -155 14 -15 32 -27 38 -28
6 0 -2 -7 -19 -14 -39 -18 -93 -18 -125 0 l-25 14 25 1 c22 1 21 3 -9 14 -42
15 -56 40 -17 30 16 -4 26 -2 26 5 0 6 -10 11 -23 11 -23 0 -47 17 -47 33 0 5
11 6 25 3 14 -4 25 -2 25 3 0 4 -13 11 -29 14 -16 3 -31 13 -34 21 -5 12 2 14
31 11 l37 -4 -37 11 c-50 15 -65 51 -44 102 19 45 23 45 18 1z m678 -2 c16
-54 2 -84 -46 -100 l-39 -13 38 5 c47 5 46 -15 -1 -30 -41 -12 -42 -29 -2 -20
17 4 30 4 30 2 0 -15 -34 -37 -56 -37 -13 0 -24 -5 -24 -11 0 -7 10 -9 26 -5
39 10 25 -15 -17 -30 -30 -11 -31 -13 -9 -14 24 -1 24 -1 6 -15 -23 -18 -83
-19 -123 -4 l-28 10 27 20 c40 29 52 76 33 128 -8 24 -15 52 -15 62 0 28 35
32 79 9 71 -36 107 -20 99 45 -5 46 8 45 22 -2z m-243 5 c-3 -8 -6 -5 -6 6 -1
11 2 17 5 13 3 -3 4 -12 1 -19z m-113 0 c5 -10 7 -10 12 0 11 24 21 11 22 -30
2 -34 9 -50 36 -77 41 -40 61 -34 51 16 -4 21 -2 40 6 49 18 22 24 17 26 -23
1 -21 5 -57 8 -79 9 -56 -2 -74 -76 -117 -48 -28 -65 -34 -75 -26 -16 13 -19
49 -4 49 6 0 10 -12 10 -26 0 -14 4 -23 10 -19 6 3 7 17 4 30 -4 16 1 30 15
44 12 12 21 30 21 41 0 23 -29 85 -36 78 -2 -3 3 -19 12 -36 23 -47 12 -69
-36 -69 -47 0 -55 15 -35 64 19 45 12 56 -9 14 -22 -41 -20 -66 5 -90 15 -14
20 -27 16 -42 -4 -13 -1 -29 6 -37 18 -22 -105 48 -125 70 -22 24 -23 62 -4
115 9 26 11 45 4 56 -11 21 5 23 21 3 8 -9 10 -28 6 -49 -10 -51 10 -56 52
-14 28 27 36 43 37 76 1 41 9 52 20 29z m-141 -5 c-7 -2 -19 -2 -25 0 -7 3 -2
5 12 5 14 0 19 -2 13 -5z m320 0 c-7 -2 -19 -2 -25 0 -7 3 -2 5 12 5 14 0 19
-2 13 -5z m144 -28 c-4 -8 -12 -15 -19 -14 -10 0 -10 2 0 6 6 2 12 12 12 21 0
8 3 13 6 9 4 -3 4 -13 1 -22z m-542 5 c-3 -5 -12 -10 -18 -10 -7 0 -6 4 3 10
19 12 23 12 15 0z m133 -15 c-3 -3 -9 2 -12 12 -6 14 -5 15 5 6 7 -7 10 -15 7
-18z m189 -7 c-3 -8 -6 -5 -6 6 -1 11 2 17 5 13 3 -3 4 -12 1 -19z m-151 -33
c-16 -25 -36 -33 -36 -16 0 4 10 21 22 36 26 33 38 16 14 -20z m144 -17 c0 -6
-7 -5 -17 3 -25 19 -33 31 -33 49 1 10 9 5 25 -13 14 -15 25 -33 25 -39z
m-166 -176 c3 -5 -1 -9 -9 -9 -8 0 -12 4 -9 9 3 4 7 8 9 8 2 0 6 -4 9 -8z
m170 0 c3 -5 -1 -9 -9 -9 -8 0 -12 4 -9 9 3 4 7 8 9 8 2 0 6 -4 9 -8z m-113
-43 c9 -4 34 -2 58 7 24 8 53 12 65 9 41 -12 106 -50 106 -62 0 -19 -15 -16
-69 14 -46 26 -51 27 -99 14 -37 -9 -56 -10 -71 -2 -32 18 -71 13 -119 -15
-35 -21 -46 -23 -53 -13 -5 9 4 20 31 35 58 33 104 37 151 13z m-16 -33 c30
-13 39 -13 75 1 41 16 42 16 106 -17 35 -18 62 -35 60 -38 -3 -2 -29 8 -57 23
-41 21 -60 25 -88 20 -46 -8 -76 -8 -123 1 -30 5 -47 1 -83 -21 -25 -14 -51
-25 -57 -23 -11 4 107 68 125 68 4 0 23 -6 42 -14z"/>
<path d="M507 493 c-3 -14 0 -39 5 -55 6 -16 8 -37 5 -48 -3 -11 -1 -20 5 -20
6 0 8 21 6 49 -2 28 1 47 6 43 5 -3 6 2 3 12 -4 10 -7 24 -7 32 0 25 -17 15
-23 -13z"/>
</g>
</svg>
