<?xml version="1.0" standalone="no"?>
<!DOCTYPE svg PUBLIC "-//W3C//DTD SVG 20010904//EN"
 "http://www.w3.org/TR/2001/REC-SVG-20010904/DTD/svg10.dtd">
<svg version="1.0" xmlns="http://www.w3.org/2000/svg"
 width="500.000000pt" height="248.000000pt" viewBox="0 0 500.000000 248.000000"
 preserveAspectRatio="xMidYMid meet">

<g transform="translate(0.000000,248.000000) scale(0.100000,-0.100000)"
fill="#000000" stroke="none">
<path d="M2530 2382 c0 -4 -19 -13 -42 -20 -49 -15 -267 -123 -308 -152 -16
-11 -33 -20 -38 -20 -6 0 -12 -4 -14 -8 -1 -4 -34 -30 -73 -57 -120 -85 -272
-232 -343 -332 -32 -45 -30 -92 10 -348 34 -220 124 -456 243 -640 l52 -81 64
-17 c191 -48 296 -61 504 -60 194 0 278 10 433 52 40 10 82 27 92 36 46 41
191 328 238 470 20 59 41 141 52 200 6 33 16 78 20 100 15 69 14 263 -1 283
-43 54 -184 199 -264 271 -64 57 -274 201 -293 201 -7 0 -12 5 -12 10 0 6 -9
10 -19 10 -11 0 -21 3 -23 8 -1 4 -32 20 -68 36 -36 16 -73 32 -82 37 -10 5
-27 9 -38 9 -11 0 -20 5 -20 10 0 6 -16 10 -35 10 -19 0 -35 -3 -35 -8z m25
-142 c-3 -5 -13 -10 -21 -10 -8 0 -14 5 -14 10 0 6 9 10 21 10 11 0 17 -4 14
-10z m55 0 c0 -5 -7 -10 -15 -10 -8 0 -15 5 -15 10 0 6 7 10 15 10 8 0 15 -4
15 -10z m-145 -10 c3 -5 -3 -10 -14 -10 -12 0 -21 5 -21 10 0 6 6 10 14 10 8
0 18 -4 21 -10z m230 0 c4 -6 -5 -10 -19 -10 -16 0 -26 -6 -26 -14 0 -7 -7
-27 -15 -42 l-15 -29 0 40 c0 32 5 43 23 51 29 15 44 16 52 4z m-271 -26 c3
-9 5 -32 5 -52 l-2 -37 -6 40 c-6 39 -7 40 -49 43 -52 4 -46 22 8 22 25 0 40
-5 44 -16z m88 -79 l-9 -40 -12 28 c-17 44 -14 95 7 99 21 4 27 -30 14 -87z
m68 75 c0 -11 -4 -20 -10 -20 -5 0 -10 9 -10 20 0 11 5 20 10 20 6 0 10 -9 10
-20z m200 10 c0 -5 -8 -10 -18 -10 -12 0 -23 -14 -34 -42 -13 -35 -17 -38 -17
-18 -1 14 -4 35 -7 47 -5 18 -3 21 15 16 12 -3 21 -1 21 6 0 6 9 11 20 11 11
0 20 -4 20 -10z m-461 -49 c0 -26 0 -26 -11 -3 -6 12 -15 22 -20 22 -5 0 -7 4
-3 10 11 18 35 -2 34 -29z m511 29 c0 -5 -6 -10 -14 -10 -8 0 -16 -6 -19 -12
-2 -7 -7 -10 -11 -7 -3 3 -4 14 0 23 7 17 44 23 44 6z m80 -50 c23 -23 45 -38
50 -35 5 3 11 1 15 -5 3 -5 3 -10 -2 -10 -4 0 -21 -11 -37 -25 -16 -14 -34
-25 -40 -25 -8 0 -8 2 0 8 6 4 17 18 23 30 11 21 9 27 -19 52 -18 16 -38 26
-46 23 -8 -3 -14 1 -14 11 0 27 28 18 70 -24z m-629 -15 c12 -25 20 -47 17
-50 -3 -3 -13 10 -22 30 -10 20 -24 39 -32 42 -8 3 -11 9 -8 14 11 18 23 8 45
-36z m-52 -24 c-1 -13 -2 -13 -6 1 -2 9 -14 20 -25 24 -16 5 -18 8 -7 15 16
10 40 -15 38 -40z m108 7 c-3 -7 -5 -2 -5 12 0 14 2 19 5 13 2 -7 2 -19 0 -25z
m236 7 c-7 -21 -13 -19 -13 6 0 11 4 18 10 14 5 -3 7 -12 3 -20z m254 3 c-3
-8 -6 -5 -6 6 -1 11 2 17 5 13 3 -3 4 -12 1 -19z m-647 -19 c0 -5 -9 -9 -20
-9 -14 0 -20 -7 -20 -21 0 -18 -2 -20 -16 -9 -13 12 -12 16 13 36 27 21 43 23
43 3z m254 -31 c-5 -8 -34 -11 -34 -4 0 2 -3 11 -6 20 -5 13 -2 13 19 3 14 -6
23 -15 21 -19z m236 23 c0 -5 6 -11 13 -14 6 -2 1 -2 -13 0 -14 1 -32 -1 -40
-6 -16 -11 -11 -14 35 -24 13 -3 10 -5 -10 -6 -16 0 -43 8 -60 19 -29 19 -30
19 -63 0 -18 -11 -45 -19 -60 -19 -27 2 -27 2 -2 6 14 3 35 14 47 25 19 18 30
20 73 14 32 -4 50 -3 50 4 0 5 7 10 15 10 8 0 15 -4 15 -9z m200 -11 c-6 -11
-15 -20 -21 -20 -6 0 -6 7 1 20 6 11 15 20 21 20 6 0 6 -7 -1 -20z m-604 -37
c24 -25 72 -11 85 24 3 8 8 7 17 -3 10 -11 10 -14 -1 -14 -8 0 -22 -9 -32 -20
-27 -29 -67 -26 -82 7 -7 15 -13 32 -12 37 0 6 3 4 6 -4 4 -8 12 -20 19 -27z
m214 33 c0 -11 -19 -15 -25 -6 -3 5 1 10 9 10 9 0 16 -2 16 -4z m270 -16 c0
-5 -10 -10 -22 -9 -22 0 -22 1 -3 9 11 5 21 9 23 9 1 1 2 -3 2 -9z m274 -5 c3
-9 0 -15 -9 -15 -8 0 -15 7 -15 15 0 8 4 15 9 15 5 0 11 -7 15 -15z m-924 -21
c0 -8 -5 -12 -10 -9 -6 4 -8 11 -5 16 9 14 15 11 15 -7z m713 0 c21 -8 23 -24
2 -24 -8 0 -15 5 -15 10 0 6 -9 10 -21 10 -11 0 -17 4 -14 11 4 5 12 8 18 5 7
-4 20 -9 30 -12z m-383 -12 c-8 -3 -23 -14 -32 -25 -10 -11 -18 -16 -18 -12 0
16 43 54 53 48 7 -4 6 -8 -3 -11z m170 -4 c17 -19 20 -31 16 -68 -10 -88 -11
-185 -1 -190 6 -3 11 39 13 113 2 95 6 119 18 124 18 7 61 -14 68 -33 5 -13
-4 -71 -25 -164 -18 -82 -22 -116 -11 -105 6 6 20 59 31 118 24 124 34 147 62
147 16 0 53 -14 67 -25 2 -1 -6 -18 -17 -36 -25 -44 -63 -159 -91 -279 -12
-52 -26 -105 -31 -118 l-9 -23 -29 20 c-30 22 -45 78 -34 133 7 34 -38 108
-65 108 -9 0 -27 -15 -39 -33 -19 -27 -23 -47 -23 -103 0 -65 -2 -73 -29 -98
-29 -28 -51 -28 -51 0 0 21 -47 211 -70 284 -11 35 -29 79 -40 98 -26 43 -25
46 5 60 54 25 77 8 89 -63 20 -118 39 -196 46 -185 7 11 3 33 -22 140 -5 25
-11 65 -11 90 -2 38 2 46 24 59 51 29 59 14 59 -113 0 -76 4 -117 12 -122 8
-5 10 26 5 124 -5 127 -5 132 16 147 29 20 43 19 67 -7z m149 -14 c1 -2 0 -8
-4 -14 -4 -7 -13 -4 -25 10 -9 11 -23 20 -29 20 -7 0 -9 4 -6 10 5 8 24 1 64
-26z m240 -20 c-6 -16 -13 -24 -16 -18 -2 6 2 24 8 40 6 16 13 24 16 18 2 -6
-2 -24 -8 -40z m85 27 c3 -5 -3 -11 -14 -14 -13 -3 -20 0 -20 9 0 15 26 19 34
5z m-1034 -30 c-17 -15 -30 -33 -30 -40 0 -6 -4 -11 -10 -11 -5 0 -10 4 -10 9
0 16 51 71 66 71 8 0 2 -12 -16 -29z m110 4 c26 -28 17 -34 -12 -8 -14 12 -21
14 -30 5 -9 -9 -7 -16 7 -32 22 -24 9 -27 -16 -4 -17 15 -17 18 -2 40 19 30
24 30 53 -1z m720 16 c0 -9 -33 -21 -57 -21 -19 0 -15 18 5 23 30 8 52 7 52
-2z m-577 -12 c14 14 37 14 37 1 0 -5 -8 -10 -18 -10 -10 0 -23 -5 -29 -11
-13 -13 -63 -1 -63 17 0 10 6 11 31 2 22 -8 34 -7 42 1z m627 -19 c0 -11 -2
-20 -5 -20 -2 0 -9 9 -15 20 -9 16 -8 20 5 20 8 0 15 -9 15 -20z m-50 0 c0 -5
-7 -10 -15 -10 -8 0 -15 5 -15 10 0 6 7 10 15 10 8 0 15 -4 15 -10z m240 0 c0
-5 -4 -10 -10 -10 -5 0 -10 5 -10 10 0 6 5 10 10 10 6 0 10 -4 10 -10z m-69
-35 c-39 -18 -41 -18 -41 -6 0 5 10 12 23 14 45 9 51 6 18 -8z m-86 -5 c-3 -5
-11 -10 -16 -10 -6 0 -7 5 -4 10 3 6 11 10 16 10 6 0 7 -4 4 -10z m-868 -36
c3 -8 11 -14 18 -14 8 0 10 -9 7 -27 -5 -25 -6 -26 -13 -6 -4 12 -24 33 -44
46 -23 16 -32 27 -23 30 17 6 48 -10 55 -29z m-42 -52 c-5 -5 -52 24 -72 44
-27 26 -11 22 32 -8 25 -17 43 -34 40 -36z m1066 25 c-29 -29 -36 -16 -9 18
14 18 23 24 26 16 2 -7 -5 -22 -17 -34z m-834 18 c9 -24 -1 -27 -15 -5 -8 13
-8 20 -2 20 6 0 13 -7 17 -15z m586 -9 c-10 -13 -20 -20 -21 -15 -5 12 17 39
30 39 5 0 1 -11 -9 -24z m166 -23 c0 -16 -3 -22 -6 -13 -3 8 -10 21 -16 28 -7
8 -5 12 7 12 11 0 16 -8 15 -27z m156 -2 c3 -5 1 -12 -5 -16 -5 -3 -10 1 -10
9 0 18 6 21 15 7z m-888 -23 c-3 -8 -6 -5 -6 6 -1 11 2 17 5 13 3 -3 4 -12 1
-19z m543 3 c0 -6 -4 -13 -10 -16 -5 -3 -10 1 -10 9 0 9 5 16 10 16 6 0 10 -4
10 -9z m-834 -26 c10 -8 27 -15 37 -15 10 0 16 -4 12 -10 -8 -14 -85 14 -85
32 0 12 14 10 36 -7z m311 -37 c-3 -7 -5 -2 -5 12 0 14 2 19 5 13 2 -7 2 -19
0 -25z m500 0 c-3 -8 -6 -5 -6 6 -1 11 2 17 5 13 3 -3 4 -12 1 -19z m258 12
c-3 -5 -10 -10 -16 -10 -5 0 -9 5 -9 10 0 6 7 10 16 10 8 0 12 -4 9 -10z
m-1095 -36 c0 -2 -7 -4 -15 -4 -8 0 -15 4 -15 10 0 5 7 7 15 4 8 -4 15 -8 15
-10z m357 -36 c-3 -7 -5 -2 -5 12 0 14 2 19 5 13 2 -7 2 -19 0 -25z m258 -24
c16 -34 16 -39 1 -70 -10 -22 -23 -34 -36 -34 -22 0 -23 -1 -14 -24 9 -23 31
-20 37 5 3 12 11 19 19 16 7 -2 11 -11 10 -18 -2 -8 -1 -43 3 -78 7 -61 10
-68 60 -118 54 -54 72 -62 93 -41 15 15 15 43 0 84 -9 26 -9 38 1 57 17 32 50
52 64 38 8 -8 8 -11 0 -11 -25 0 -24 -58 1 -132 14 -41 26 -87 26 -102 0 -64
-69 -148 -133 -162 -16 -3 -50 -21 -74 -40 -53 -40 -72 -44 -48 -8 10 16 13
29 7 37 -5 7 -12 24 -14 39 -4 22 0 31 21 45 39 25 50 44 51 85 0 41 -13 77
-45 123 -33 48 -45 76 -45 101 0 36 -26 29 -34 -8 -4 -18 -22 -56 -41 -85 -47
-71 -59 -127 -37 -173 9 -19 27 -39 40 -45 16 -7 22 -18 22 -42 0 -18 -4 -33
-10 -33 -5 0 -10 -9 -10 -20 0 -11 4 -20 9 -20 5 0 11 -7 15 -15 8 -23 -7 -18
-61 19 -26 18 -60 37 -73 41 -112 36 -160 148 -111 258 30 67 34 96 16 124
-22 33 -11 41 23 16 32 -24 38 -53 22 -106 -10 -33 -9 -42 6 -58 9 -10 22 -19
28 -19 21 0 126 111 127 133 4 103 7 130 18 137 10 6 10 12 2 28 -15 29 -14
59 5 87 23 34 39 31 59 -11z m-634 -17 c-10 -9 -11 -8 -5 6 3 10 9 15 12 12 3
-3 0 -11 -7 -18z m66 -9 c-3 -8 -6 -5 -6 6 -1 11 2 17 5 13 3 -3 4 -12 1 -19z
m750 -20 c-3 -8 -6 -5 -6 6 -1 11 2 17 5 13 3 -3 4 -12 1 -19z m-840 -10 c-3
-8 -6 -5 -6 6 -1 11 2 17 5 13 3 -3 4 -12 1 -19z m1180 -20 c-3 -7 -5 -2 -5
12 0 14 2 19 5 13 2 -7 2 -19 0 -25z m-1155 -67 c-4 -66 -4 -70 23 -87 39 -25
84 -21 161 15 71 33 94 37 125 21 26 -14 25 -78 -1 -132 -44 -91 -17 -201 63
-254 36 -24 38 -27 21 -38 -60 -40 -172 -46 -238 -14 -51 24 -51 38 0 38 51 0
33 17 -27 25 -40 6 -53 12 -61 31 -14 30 -6 39 20 25 29 -15 52 -14 52 4 0 11
-11 15 -36 15 -26 0 -43 8 -65 30 -46 45 -19 62 54 35 11 -5 17 -2 17 8 0 9
-14 17 -40 21 -42 7 -84 39 -77 59 2 7 13 11 23 9 69 -12 84 -13 84 -5 0 6
-24 15 -54 22 -58 13 -78 32 -90 87 -9 38 28 154 49 154 1 0 0 -31 -3 -69z
m1230 26 c7 -18 13 -58 13 -89 0 -71 -20 -95 -96 -113 -42 -10 -50 -14 -35
-20 10 -5 33 -3 52 4 43 15 57 8 43 -23 -11 -23 -59 -46 -98 -46 -14 0 -21 -5
-18 -12 4 -14 13 -14 65 -3 26 6 32 4 32 -9 0 -32 -46 -66 -90 -66 -29 0 -40
-4 -40 -15 0 -18 23 -19 52 -4 14 8 23 8 31 0 19 -19 -21 -50 -74 -57 -56 -8
-66 -24 -14 -24 45 0 44 -11 -4 -38 -48 -27 -136 -29 -200 -4 -54 21 -59 32
-22 53 15 9 41 33 57 54 25 34 29 47 29 104 -1 47 -7 79 -23 110 -28 58 -28
95 0 115 31 22 55 20 113 -10 73 -36 122 -46 161 -29 38 16 48 49 36 117 -11
55 7 58 30 5z m-435 -9 c-3 -8 -6 -5 -6 6 -1 11 2 17 5 13 3 -3 4 -12 1 -19z
m490 -40 c-3 -8 -6 -5 -6 6 -1 11 2 17 5 13 3 -3 4 -12 1 -19z m-504 -38 c-3
-11 -7 -20 -9 -20 -2 0 -4 9 -4 20 0 11 4 20 9 20 5 0 7 -9 4 -20z m-252 -3
c-1 -4 -1 -16 -1 -26 0 -26 -84 -109 -88 -88 -4 19 13 52 48 96 23 28 43 37
41 18z m225 -76 c23 -55 1 -57 -45 -5 -39 44 -50 72 -34 87 10 11 63 -44 79
-82z m-96 -64 c35 -71 37 -96 12 -127 -16 -19 -20 -20 -45 -9 -22 10 -33 10
-47 1 -35 -21 -59 5 -60 64 0 24 48 124 60 124 14 0 24 -111 12 -131 -14 -22
4 -38 21 -20 13 13 14 101 3 146 -11 44 11 20 44 -48z m-36 -166 c7 -11 -22
-23 -35 -15 -5 3 -9 9 -9 15 0 12 37 12 44 0z m-1 -81 c8 -32 -6 -55 -27 -47
-19 8 -22 73 -3 80 16 6 23 -2 30 -33z m-59 -111 c39 -19 40 -19 83 2 29 14
64 21 103 22 51 0 73 -6 145 -42 71 -36 85 -47 85 -67 0 -35 -37 -31 -96 9
-104 70 -145 74 -252 24 -18 -9 -34 -7 -70 8 -96 37 -164 27 -251 -39 -46 -35
-81 -35 -81 -1 0 18 8 29 28 37 15 7 43 23 63 35 68 44 165 49 243 12z m-62
-48 c13 -5 42 -17 65 -26 38 -16 45 -16 65 -3 13 8 44 20 69 27 57 16 100 4
170 -46 26 -18 54 -33 62 -33 24 0 47 -11 47 -22 0 -17 -62 0 -113 32 -67 41
-115 53 -172 40 -25 -6 -54 -16 -65 -22 -16 -10 -26 -10 -52 1 -92 37 -143 35
-218 -7 -85 -47 -95 -52 -119 -52 -20 0 -21 2 -11 15 7 8 20 15 30 15 20 0 51
15 95 46 55 39 106 51 147 35z"/>
<path d="M2940 426 c0 -69 -2 -75 -22 -82 -71 -21 -108 -76 -83 -123 15 -29
39 -41 88 -41 17 0 27 -5 27 -15 0 -17 16 -20 25 -5 3 5 3 84 -1 175 -5 128
-10 165 -21 165 -10 0 -13 -19 -13 -74z m10 -161 l0 -55 -40 0 c-30 0 -42 5
-50 21 -15 28 -7 45 32 69 51 31 58 27 58 -35z"/>
<path d="M1613 474 c-11 -22 1 -204 17 -264 16 -58 33 -51 25 10 -6 47 -5 51
25 76 34 29 70 92 70 123 0 21 -56 59 -101 68 -20 4 -30 0 -36 -13z m77 -34
l40 -20 -19 -38 c-18 -36 -58 -79 -65 -71 -9 11 -14 149 -5 149 5 0 28 -9 49
-20z"/>
<path d="M4040 410 l0 -80 -40 0 c-52 0 -52 -18 1 -26 l41 -7 -4 -68 c-4 -90
14 -94 26 -7 8 62 11 68 33 68 14 0 23 6 23 15 0 9 -9 15 -25 15 -25 0 -25 1
-25 85 0 69 -3 85 -15 85 -12 0 -15 -16 -15 -80z"/>
<path d="M3433 460 c-52 -31 -45 -63 27 -135 33 -33 60 -65 60 -71 0 -13 -41
-49 -62 -56 -6 -2 -8 -10 -4 -16 10 -16 60 10 81 42 21 32 9 59 -54 121 -77
75 -64 105 43 105 43 0 56 3 56 15 0 24 -106 20 -147 -5z"/>
<path d="M323 448 c2 -8 18 -12 40 -10 l37 4 0 -84 c1 -82 12 -163 24 -175 16
-16 18 14 7 92 -6 47 -9 101 -5 120 6 33 9 35 45 35 40 0 52 13 23 24 -9 3
-52 6 -96 6 -59 0 -79 -3 -75 -12z"/>
<path d="M1856 360 c-70 -22 -98 -88 -55 -131 17 -17 28 -20 57 -14 69 13 122
55 122 96 0 39 -68 66 -124 49z m88 -42 c8 -13 6 -22 -9 -38 -21 -23 -86 -45
-109 -37 -34 13 -12 73 34 90 27 11 73 2 84 -15z"/>
<path d="M3637 359 c-70 -41 -34 -169 48 -169 36 0 75 34 58 51 -7 7 -14 5
-23 -6 -17 -20 -53 -19 -73 3 -27 30 -21 44 16 37 37 -6 80 13 85 37 8 41 -66
73 -111 47z m78 -39 c0 -16 -45 -26 -72 -16 -13 5 -13 9 -2 22 16 19 74 15 74
-6z"/>
<path d="M4235 360 c-41 -13 -75 -46 -75 -73 1 -68 28 -87 98 -68 44 12 102
60 102 84 0 45 -66 75 -125 57z m83 -32 c7 -7 12 -18 12 -24 0 -19 -55 -54
-94 -61 -27 -4 -36 -1 -45 15 -15 28 -5 47 32 66 38 19 79 20 95 4z"/>
<path d="M656 353 c-4 -4 -27 -6 -51 -4 -41 2 -46 0 -65 -31 -24 -39 -26 -91
-4 -112 17 -17 20 -18 94 -20 l50 -1 0 82 c0 76 -7 102 -24 86z m-8 -80 c3
-34 -1 -44 -18 -53 -12 -6 -34 -8 -51 -5 -24 6 -29 12 -29 36 0 52 16 71 58
67 36 -3 37 -4 40 -45z"/>
<path d="M782 346 l-33 -10 3 -75 c2 -48 7 -76 16 -79 9 -3 12 14 12 62 0 57
3 67 22 77 18 10 24 8 39 -10 10 -12 21 -42 25 -66 9 -61 34 -62 34 -2 0 24 6
52 14 63 14 19 15 19 29 0 7 -10 22 -40 33 -67 10 -27 23 -48 29 -46 14 6 8
34 -23 97 -31 63 -60 76 -86 39 l-15 -23 -21 27 c-23 29 -28 30 -78 13z"/>
<path d="M1160 353 c-68 -7 -77 -12 -94 -53 -20 -51 -20 -63 2 -90 15 -19 29
-23 80 -24 l61 -2 6 61 c8 70 4 108 -10 110 -5 1 -26 0 -45 -2z m25 -82 c0
-40 -3 -45 -28 -54 -62 -20 -98 28 -61 81 12 18 24 22 52 20 37 -3 37 -4 37
-47z"/>
<path d="M2046 339 c-14 -11 -26 -27 -26 -34 0 -25 31 -45 69 -45 41 0 78 -21
67 -38 -12 -20 -63 -24 -96 -7 -38 20 -50 13 -25 -15 25 -28 107 -28 135 0 24
24 25 32 3 59 -13 15 -34 23 -70 28 -29 3 -53 9 -53 13 0 18 34 32 75 32 45
-1 60 10 29 22 -32 12 -82 5 -108 -15z"/>
<path d="M2227 354 c-3 -4 9 -37 28 -75 19 -38 35 -73 35 -78 0 -6 -16 -36
-35 -68 -22 -37 -31 -61 -25 -67 12 -12 8 -17 65 78 43 71 95 186 95 209 0 25
-27 -6 -46 -53 -12 -30 -26 -56 -31 -57 -5 -2 -20 19 -33 47 -25 53 -43 74
-53 64z"/>
<path d="M2566 353 c-4 -4 -27 -6 -51 -4 -41 2 -46 0 -65 -31 -24 -39 -26 -91
-4 -112 17 -17 15 -17 92 -19 l52 -2 0 82 c0 76 -7 102 -24 86z m-8 -80 c3
-34 -1 -44 -18 -53 -24 -13 -79 -4 -81 13 -2 23 3 52 13 70 7 13 19 17 46 15
36 -3 37 -4 40 -45z"/>
<path d="M4432 348 c-12 -6 -25 -22 -29 -36 -8 -31 17 -52 63 -52 45 0 64 -9
64 -30 0 -25 -55 -34 -93 -15 -37 18 -37 18 -37 0 0 -21 32 -35 80 -35 57 0
80 14 80 49 0 38 -17 50 -79 58 -82 9 -57 49 27 44 24 -1 33 2 30 11 -6 17
-76 21 -106 6z"/>
<path d="M4746 353 c-4 -4 -27 -6 -51 -4 -41 2 -46 0 -65 -31 -24 -39 -26 -91
-4 -112 17 -17 15 -17 92 -19 l52 -2 0 82 c0 76 -7 102 -24 86z m-8 -80 c3
-34 -1 -44 -18 -53 -12 -6 -34 -8 -51 -5 -24 6 -29 12 -29 36 0 52 16 71 58
67 36 -3 37 -4 40 -45z"/>
<path d="M1285 283 c-3 -37 -8 -78 -11 -90 -3 -15 0 -23 10 -23 16 0 26 30 26
80 0 44 12 63 36 58 16 -3 19 -14 22 -76 2 -55 6 -72 17 -72 12 0 15 15 15 69
0 81 -15 106 -72 115 l-36 7 -7 -68z"/>
<path d="M2660 313 c0 -21 -3 -62 -7 -92 -5 -44 -3 -53 8 -49 8 3 17 25 20 56
9 69 15 82 38 82 23 0 31 -26 31 -98 0 -39 4 -52 13 -49 8 3 11 23 9 68 -5
101 -3 99 -79 114 -33 7 -33 6 -33 -32z"/>
<path d="M3817 343 c-2 -4 -8 -46 -12 -92 -5 -67 -4 -82 7 -79 7 3 16 27 19
56 9 69 15 82 38 82 22 0 31 -26 31 -97 0 -42 3 -53 16 -53 14 0 15 9 10 68
-10 92 -13 101 -44 108 -15 3 -34 8 -44 10 -9 3 -18 1 -21 -3z"/>
<path d="M3176 290 c-8 -61 -41 -90 -80 -72 -19 8 -25 21 -31 61 -8 60 -25 68
-25 12 0 -91 43 -126 111 -93 l38 19 6 -24 c3 -12 10 -23 17 -23 7 0 9 17 4
52 -3 29 -6 68 -6 86 0 53 -26 40 -34 -18z"/>
</g>
</svg>
